<svg xmlns="http://www.w3.org/2000/svg" viewBox="0 0 600 600" role="img" aria-label="Pipe Pay license - Unlimited Sites">
  <defs>
    <linearGradient id="bg-unlimited" x1="0" y1="0" x2="0" y2="1">
      <stop offset="0%" stop-color="#1a47c4"/>
      <stop offset="100%" stop-color="#0e2d8b"/>
    </linearGradient>
  </defs>
  <rect width="600" height="600" fill="url(#bg-unlimited)"/>

  <rect x="30" y="30" width="540" height="540" rx="18" fill="none" stroke="rgba(255,255,255,0.22)" stroke-width="2"/>

  <g transform="translate(240,60) scale(1.875)">
    <rect x="2"  y="26" width="8" height="12" fill="#fff"/>
    <rect x="9"  y="22" width="3" height="20" fill="#fff"/>
    <rect x="54" y="26" width="8" height="12" fill="#fff"/>
    <rect x="52" y="22" width="3" height="20" fill="#fff"/>
    <path d="M 12 32 L 32 14" stroke="#fff" stroke-width="1.6" fill="none" stroke-linecap="round"/>
    <path d="M 12 32 L 22 32" stroke="#fff" stroke-width="1.6" fill="none" stroke-linecap="round"/>
    <path d="M 12 32 L 32 50" stroke="#fff" stroke-width="1.6" fill="none" stroke-linecap="round"/>
    <path d="M 52 32 L 32 14" stroke="#fff" stroke-width="1.6" fill="none" stroke-linecap="round"/>
    <path d="M 52 32 L 42 32" stroke="#fff" stroke-width="1.6" fill="none" stroke-linecap="round"/>
    <path d="M 52 32 L 32 50" stroke="#fff" stroke-width="1.6" fill="none" stroke-linecap="round"/>
    <circle cx="12" cy="32" r="1.8" fill="#fff"/>
    <circle cx="52" cy="32" r="1.8" fill="#fff"/>
    <circle cx="32" cy="32" r="10.5" fill="#fff"/>
    <circle cx="32" cy="32" r="8.8"  fill="#1336a8"/>
    <text x="32" y="38" text-anchor="middle" font-family="Manrope, Inter, -apple-system, sans-serif" font-size="17" font-weight="800" fill="#fff">$</text>
  </g>

  <text x="300" y="255" text-anchor="middle" fill="#fff"
        font-family="Manrope, Inter, -apple-system, sans-serif"
        font-size="44" font-weight="800" letter-spacing="-1">Pipe Pay</text>

  <line x1="220" y1="300" x2="380" y2="300" stroke="rgba(255,255,255,0.35)" stroke-width="2"/>

  <text x="300" y="355" text-anchor="middle" fill="rgba(255,255,255,0.85)"
        font-family="Manrope, Inter, sans-serif"
        font-size="18" font-weight="700" letter-spacing="6">UNLIMITED SITES</text>

  <!-- Lemniscate (∞) drawn as a path so it renders identically across all platforms.
       Centered at y=475 with a vertical extent of ~80px, mirroring the bounding box
       of the 130pt digit used on the other tiers. -->
  <g transform="translate(300,475)" fill="none" stroke="#fff" stroke-width="18" stroke-linecap="round" stroke-linejoin="round">
    <path d="M -95 0
             C -95 -45, -45 -45, 0 0
             C 45 45, 95 45, 95 0
             C 95 -45, 45 -45, 0 0
             C -45 45, -95 45, -95 0 Z"/>
  </g>

  <text x="300" y="555" text-anchor="middle" fill="rgba(255,255,255,0.6)"
        font-family="Manrope, Inter, sans-serif"
        font-size="14" font-weight="600" letter-spacing="3">ANNUAL LICENSE</text>
</svg>
